[Header]
FileType HTR
DataType HTRS
FileVersion 1
NumSegments 64
NumFrames 4
DataFrameRate 24
EulerRotationOrder ZYX
CalibrationUnits mm
RotationUnits Degrees
GlobalAxisofGravity Y
BoneLengthAxis Y
ScaleFactor 1.0
[SegmentNames&Hierarchy]
Hips	GLOBAL
Spine	Hips
Spine1	Spine
Spine2	Spine1
Neck	Spine2
Head	Neck
LeftEye	Head
RightEye	Head
LeftShoulder	Spine2
LeftArm	LeftShoulder
LeftForeArm	LeftArm
LeftHand	LeftForeArm
LeftHandThumb1	LeftHand
LeftHandThumb2	LeftHandThumb1
LeftHandThumb3	LeftHandThumb2
LeftHandThumb4	LeftHandThumb3
LeftHandIndex1	LeftHand
LeftHandIndex2	LeftHandIndex1
LeftHandIndex3	LeftHandIndex2
LeftHandIndex4	LeftHandIndex3
LeftHandMiddle1	LeftHand
LeftHandMiddle2	LeftHandMiddle1
LeftHandMiddle3	LeftHandMiddle2
LeftHandMiddle4	LeftHandMiddle3
LeftHandRing1	LeftHand
LeftHandRing2	LeftHandRing1
LeftHandRing3	LeftHandRing2
LeftHandRing4	LeftHandRing3
LeftHandPinky1	LeftHand
LeftHandPinky2	LeftHandPinky1
LeftHandPinky3	LeftHandPinky2
LeftHandPinky4	LeftHandPinky3
RightShoulder	Spine2
RightArm	RightShoulder
RightForeArm	RightArm
RightHand	RightForeArm
RightHandPinky1	RightHand
RightHandPinky2	RightHandPinky1
RightHandPinky3	RightHandPinky2
RightHandPinky4	RightHandPinky3
RightHandRing1	RightHand
RightHandRing2	RightHandRing1
RightHandRing3	RightHandRing2
RightHandRing4	RightHandRing3
RightHandMiddle1	RightHand
RightHandMiddle2	RightHandMiddle1
RightHandMiddle3	RightHandMiddle2
RightHandMiddle4	RightHandMiddle3
RightHandIndex1	RightHand
RightHandIndex2	RightHandIndex1
RightHandIndex3	RightHandIndex2
RightHandIndex4	RightHandIndex3
RightHandThumb1	RightHand
RightHandThumb2	RightHandThumb1
RightHandThumb3	RightHandThumb2
RightHandThumb4	RightHandThumb3
LeftUpLeg	Hips
LeftLeg	LeftUpLeg
LeftFoot	LeftLeg
LeftToeBase	LeftFoot
RightUpLeg	Hips
RightLeg	RightUpLeg
RightFoot	RightLeg
RightToeBase	RightFoot
[BasePosition]
Hips	0	0	0	0	0	0	1
Spine	0	0	0	0	0	0	1
Spine1	0	0	0	0	0	0	1
Spine2	0	0	0	0	0	0	1
Neck	0	0	0	0	0	0	1
Head	0	0	0	0	0	0	1
LeftEye	0	0	0	0	0	0	1
RightEye	0	0	0	0	0	0	1
LeftShoulder	0	0	0	0	0	0	1
LeftArm	0	0	0	0	0	0	1
LeftForeArm	0	0	0	0	0	0	1
LeftHand	0	0	0	0	0	0	1
LeftHandThumb1	0	0	0	0	0	0	1
LeftHandThumb2	0	0	0	0	0	0	1
LeftHandThumb3	0	0	0	0	0	0	1
LeftHandThumb4	0	0	0	0	0	0	1
LeftHandIndex1	0	0	0	0	0	0	1
LeftHandIndex2	0	0	0	0	0	0	1
LeftHandIndex3	0	0	0	0	0	0	1
LeftHandIndex4	0	0	0	0	0	0	1
LeftHandMiddle1	0	0	0	0	0	0	1
LeftHandMiddle2	0	0	0	0	0	0	1
LeftHandMiddle3	0	0	0	0	0	0	1
LeftHandMiddle4	0	0	0	0	0	0	1
LeftHandRing1	0	0	0	0	0	0	1
LeftHandRing2	0	0	0	0	0	0	1
LeftHandRing3	0	0	0	0	0	0	1
LeftHandRing4	0	0	0	0	0	0	1
LeftHandPinky1	0	0	0	0	0	0	1
LeftHandPinky2	0	0	0	0	0	0	1
LeftHandPinky3	0	0	0	0	0	0	1
LeftHandPinky4	0	0	0	0	0	0	1
RightShoulder	0	0	0	0	0	0	1
RightArm	0	0	0	0	0	0	1
RightForeArm	0	0	0	0	0	0	1
RightHand	0	0	0	0	0	0	1
RightHandPinky1	0	0	0	0	0	0	1
RightHandPinky2	0	0	0	0	0	0	1
RightHandPinky3	0	0	0	0	0	0	1
RightHandPinky4	0	0	0	0	0	0	1
RightHandRing1	0	0	0	0	0	0	1
RightHandRing2	0	0	0	0	0	0	1
RightHandRing3	0	0	0	0	0	0	1
RightHandRing4	0	0	0	0	0	0	1
RightHandMiddle1	0	0	0	0	0	0	1
RightHandMiddle2	0	0	0	0	0	0	1
RightHandMiddle3	0	0	0	0	0	0	1
RightHandMiddle4	0	0	0	0	0	0	1
RightHandIndex1	0	0	0	0	0	0	1
RightHandIndex2	0	0	0	0	0	0	1
RightHandIndex3	0	0	0	0	0	0	1
RightHandIndex4	0	0	0	0	0	0	1
RightHandThumb1	0	0	0	0	0	0	1
RightHandThumb2	0	0	0	0	0	0	1
RightHandThumb3	0	0	0	0	0	0	1
RightHandThumb4	0	0	0	0	0	0	1
LeftUpLeg	0	0	0	0	0	0	1
LeftLeg	0	0	0	0	0	0	1
LeftFoot	0	0	0	0	0	0	1
LeftToeBase	0	0	0	0	0	0	1
RightUpLeg	0	0	0	0	0	0	1
RightLeg	0	0	0	0	0	0	1
RightFoot	0	0	0	0	0	0	1
RightToeBase	0	0	0	0	0	0	1
[Hips]
82	-77.48640442	888.7230835	1.062391996	-7.233774662	-18.50116539	13.25135899	1.0
83	-80.36116028	873.8793335	4.942134857	-8.332532883	-14.95387936	11.96125507	1.0
84	-84.22889709	868.0142212	7.768259048	-8.738182068	-12.81951332	11.23405933	1.0
85	-87.39320374	871.5025635	9.107128143	-8.076702118	-12.29374599	11.08025074	1.0
[Spine]
82	9.234152094e-05	101.8158798	1.31520927	13.88305569	0.4262996316	8.755441666	1.0
83	9.234152094e-05	101.8158798	1.31520927	14.16827011	0.9532617927	9.076084137	1.0
84	9.234152094e-05	101.8158798	1.31520927	13.78112984	0.7790092826	9.123495102	1.0
85	9.234152094e-05	101.8158798	1.31520927	12.86024094	0.4151133299	9.067980766	1.0
[Spine1]
82	2.519402869e-06	100.8345108	-10.00804329	0.8906762004	-0.05756897107	0.8817970157	1.0
83	2.519402869e-06	100.8345108	-10.00804329	0.8762290478	0.0233622361	1.066166282	1.0
84	2.519402869e-06	100.8345108	-10.00804329	0.7425929904	-0.07989509404	1.322397351	1.0
85	2.519402869e-06	100.8345108	-10.00804329	0.4800105691	-0.2545464039	1.684487462	1.0
[Spine2]
82	3.4574864e-06	91.00010681	-13.73417091	0.8845067024	-0.07964384556	0.1857724041	1.0
83	3.4574864e-06	91.00010681	-13.73417091	0.8702607751	0.002324044472	0.2902686	1.0
84	3.4574864e-06	91.00010681	-13.73417091	0.7359687686	-0.1139569283	0.4713353217	1.0
85	3.4574864e-06	91.00010681	-13.73417091	0.4714747667	-0.3157040775	0.7595806122	1.0
[Neck]
82	6.334285445e-06	166.7166901	-25.16167831	6.451784611	0.8695019484	-2.657798767	1.0
83	6.334285445e-06	166.7166901	-25.16167831	6.620878696	0.4404522181	-2.743877649	1.0
84	6.334285445e-06	166.7166901	-25.16167831	6.671406269	0.2581113279	-3.235117912	1.0
85	6.334285445e-06	166.7166901	-25.16167831	6.566039085	0.2529827058	-3.826540232	1.0
[Head]
82	-4.242318937e-06	96.17874908	16.85007477	-5.405752182	11.07658863	-13.43904018	1.0
83	-4.242318937e-06	96.17874908	16.85007477	-5.543275356	7.834606647	-12.02151203	1.0
84	-4.242318937e-06	96.17874908	16.85007477	-5.35137558	6.713917732	-12.15769291	1.0
85	-4.242318937e-06	96.17874908	16.85007477	-5.186209679	7.335512638	-13.63664913	1.0
[LeftEye]
82	30.67560577	64.09507751	92.83554077	0	0	0	1.0
83	30.67560577	64.09507751	92.83554077	0	0	0	1.0
84	30.67560577	64.09507751	92.83554077	0	0	0	1.0
85	30.67560577	64.09507751	92.83554077	0	0	0	1.0
[RightEye]
82	-30.67550468	64.09500122	92.83547211	0	0	0	1.0
83	-30.67550468	64.09500122	92.83547211	0	0	0	1.0
84	-30.67550468	64.09500122	92.83547211	0	0	0	1.0
85	-30.67550468	64.09500122	92.83547211	0	0	0	1.0
[LeftShoulder]
82	45.70446396	109.4598465	-26.27988052	5.731231213	-6.983564377	-20.44392014	1.0
83	45.70446396	109.4598465	-26.27988052	6.986767292	-7.240043163	-18.04976082	1.0
84	45.70446396	109.4598465	-26.27988052	7.343200684	-7.275526524	-15.12146568	1.0
85	45.70446396	109.4598465	-26.27988052	6.967238426	-7.247607231	-12.41648579	1.0
[LeftArm]
82	105.9236984	-5.245829105	-22.32120132	-45.76984787	6.469234467	-29.98460579	1.0
83	105.9236984	-5.245829105	-22.32120132	-38.97374725	6.394490242	-36.21130753	1.0
84	105.9236984	-5.245829105	-22.32120132	-35.94214249	6.606076241	-36.66029739	1.0
85	105.9236984	-5.245829105	-22.32120132	-38.30514145	6.744100094	-31.9061718	1.0
[LeftForeArm]
82	278.4151917	-0.0008942864952	0.0003745891154	129.6875763	-66.27913666	-129.6721039	1.0
83	278.4151917	-0.0008942864952	0.0003745891154	151.9562531	-56.8678093	-148.1069794	1.0
84	278.4151917	-0.0008942864952	0.0003745891154	154.9511108	-54.47042847	-153.9418182	1.0
85	278.4151917	-0.0008942864952	0.0003745891154	145.8279114	-59.03329086	-154.3433838	1.0
[LeftHand]
82	283.2883911	-0.0001744071778	0.0003780452244	-36.43938065	-0.5062725544	11.28789043	1.0
83	283.2883911	-0.0001744071778	0.0003780452244	-32.36922455	0.9517251849	12.7637701	1.0
84	283.2883911	-0.0001744071778	0.0003780452244	-27.95660973	0.7781013846	15.70534801	1.0
85	283.2883911	-0.0001744071778	0.0003780452244	-23.41729164	0.1233756542	20.03856087	1.0
[LeftHandThumb1]
82	24.66140366	-15.7504921	26.82413483	-17.90587997	-1.11917448	-10.0585165	1.0
83	24.66140366	-15.7504921	26.82413483	-18.06642151	-1.010834932	-10.18959808	1.0
84	24.66140366	-15.7504921	26.82413483	-18.22450066	-0.9066572785	-10.31937027	1.0
85	24.66140366	-15.7504921	26.82413483	-18.37924004	-0.8079851866	-10.44755554	1.0
[LeftHandThumb2]
82	32.29803848	-18.6469059	18.64681244	29.41527748	31.22023773	29.84643745	1.0
83	32.29803848	-18.6469059	18.64681244	29.7110405	31.24278641	30.07124519	1.0
84	32.29803848	-18.6469059	18.64681244	29.99886322	31.26435089	30.29032326	1.0
85	32.29803848	-18.6469059	18.64681244	30.27584648	31.28502846	30.50193596	1.0
[LeftHandThumb3]
82	26.52565002	-15.31492996	15.31471634	-9.264227867	23.30015182	5.424215317	1.0
83	26.52565002	-15.31492996	15.31471634	-9.200798988	23.61753654	5.519311905	1.0
84	26.52565002	-15.31492996	15.31471634	-9.14098835	23.92528343	5.610141277	1.0
85	26.52565002	-15.31492996	15.31471634	-9.086684227	24.21991539	5.694265366	1.0
[LeftHandThumb4]
82	19.54566956	-11.2850008	11.28492165	0	0	0	1.0
83	19.54566956	-11.2850008	11.28492165	0	0	0	1.0
84	19.54566956	-11.2850008	11.28492165	0	0	0	1.0
85	19.54566956	-11.2850008	11.28492165	0	0	0	1.0
[LeftHandIndex1]
82	91.09301758	-5.170834064	22.6007309	-6.721661091	7.20917511	-79.41075897	1.0
83	91.09301758	-5.170834064	22.6007309	-6.755373955	7.323861122	-80.11474609	1.0
84	91.09301758	-5.170834064	22.6007309	-6.788449287	7.4332757	-80.80399323	1.0
85	91.09301758	-5.170834064	22.6007309	-6.821012497	7.535952568	-81.47387695	1.0
[LeftHandIndex2]
82	36.76409531	-6.939138257e-05	0.0002924251603	-2.734920979	4.627711296	-54.20091248	1.0
83	36.76409531	-6.939138257e-05	0.0002924251603	-2.769386768	4.640827656	-54.45689011	1.0
84	36.76409531	-6.939138257e-05	0.0002924251603	-2.803462744	4.653685093	-54.70953751	1.0
85	36.76409531	-6.939138257e-05	0.0002924251603	-2.837023735	4.666233063	-54.95802689	1.0
[LeftHandIndex3]
82	28.83062553	0.000385119667	-0.0004276481632	-0.8628872037	4.731612682	-46.12954712	1.0
83	28.83062553	0.000385119667	-0.0004276481632	-0.8780102134	4.749299526	-46.3427124	1.0
84	28.83062553	0.000385119667	-0.0004276481632	-0.8930135965	4.766640663	-46.55299377	1.0
85	28.83062553	0.000385119667	-0.0004276481632	-0.9078328609	4.783658981	-46.75984955	1.0
[LeftHandIndex4]
82	23.92720032	0.0003702590766	0.0003355443478	0	0	0	1.0
83	23.92720032	0.0003702590766	0.0003355443478	0	0	0	1.0
84	23.92720032	0.0003702590766	0.0003355443478	0	0	0	1.0
85	23.92720032	0.0003702590766	0.0003355443478	0	0	0	1.0
[LeftHandMiddle1]
82	95.33401489	-0.000339240476	0.0001393702551	-10.11786938	8.278348923	-77.78403473	1.0
83	95.33401489	-0.000339240476	0.0001393702551	-10.18617535	8.280792236	-78.40143585	1.0
84	95.33401489	-0.000339240476	0.0001393702551	-10.25352478	8.282510757	-79.00663757	1.0
85	95.33401489	-0.000339240476	0.0001393702551	-10.31972599	8.283599854	-79.59594727	1.0
[LeftHandMiddle2]
82	36.98236847	1.961359158e-05	0.0001791696704	-3.68502593	6.69116354	-81.0875473	1.0
83	36.98236847	1.961359158e-05	0.0001791696704	-3.71544385	6.703942299	-81.53347778	1.0
84	36.98236847	1.961359158e-05	0.0001791696704	-3.745507002	6.716289997	-81.97360992	1.0
85	36.98236847	1.961359158e-05	0.0001791696704	-3.775121927	6.728047848	-82.40656281	1.0
[LeftHandMiddle3]
82	29.50921631	-0.0003937608562	0.0001644795993	-2.208486557	4.532147884	-51.69463348	1.0
83	29.50921631	-0.0003937608562	0.0001644795993	-2.229286194	4.547096729	-51.94258881	1.0
84	29.50921631	-0.0003937608562	0.0001644795993	-2.249869585	4.561781406	-52.18725967	1.0
85	29.50921631	-0.0003937608562	0.0001644795993	-2.270196676	4.576115131	-52.42788315	1.0
[LeftHandMiddle4]
82	28.3390255	-0.0003893481917	-9.504223272e-05	0	0	0	1.0
83	28.3390255	-0.0003893481917	-9.504223272e-05	0	0	0	1.0
84	28.3390255	-0.0003893481917	-9.504223272e-05	0	0	0	1.0
85	28.3390255	-0.0003893481917	-9.504223272e-05	0	0	0	1.0
[LeftHandRing1]
82	91.04527283	-0.4393950403	-18.65084648	-15.27542496	8.591364861	-85.34609985	1.0
83	91.04527283	-0.4393950403	-18.65084648	-15.34728432	8.493985176	-85.88611603	1.0
84	91.04527283	-0.4393950403	-18.65084648	-15.41828156	8.399183273	-86.41725922	1.0
85	91.04527283	-0.4393950403	-18.65084648	-15.48828793	8.308254242	-86.93718719	1.0
[LeftHandRing2]
82	31.54026794	-6.55346812e-05	0.000104257444	-3.33557725	7.673345089	-92.55622864	1.0
83	31.54026794	-6.55346812e-05	0.000104257444	-3.33498168	7.689713955	-93.00656128	1.0
84	31.54026794	-6.55346812e-05	0.000104257444	-3.334325552	7.70552063	-93.45092773	1.0
85	31.54026794	-6.55346812e-05	0.000104257444	-3.333692074	7.720758438	-93.88804626	1.0
[LeftHandRing3]
82	29.37672424	-0.0004545861739	-6.864757597e-05	1.080526352	5.348890305	-46.07842255	1.0
83	29.37672424	-0.0004545861739	-6.864757597e-05	1.100985885	5.372164726	-46.28149796	1.0
84	29.37672424	-0.0004545861739	-6.864757597e-05	1.12113905	5.395064831	-46.48191071	1.0
85	29.37672424	-0.0004545861739	-6.864757597e-05	1.140919447	5.417564392	-46.6789856	1.0
[LeftHandRing4]
82	26.47452545	-0.0004980441299	7.070515267e-07	0	0	0	1.0
83	26.47452545	-0.0004980441299	7.070515267e-07	0	0	0	1.0
84	26.47452545	-0.0004980441299	7.070515267e-07	0	0	0	1.0
85	26.47452545	-0.0004980441299	7.070515267e-07	0	0	0	1.0
[LeftHandPinky1]
82	80.77777863	-4.886682034	-38.06066895	-21.9180584	7.491921425	-92.96549225	1.0
83	80.77777863	-4.886682034	-38.06066895	-21.94271088	7.253595829	-93.337883	1.0
84	80.77777863	-4.886682034	-38.06066895	-21.96828079	7.022503853	-93.70765686	1.0
85	80.77777863	-4.886682034	-38.06066895	-21.99523544	6.801451683	-94.07502747	1.0
[LeftHandPinky2]
82	36.00034332	-2.252215199e-05	-0.0002623879409	-0.2570604384	9.747293472	-80.32597351	1.0
83	36.00034332	-2.252215199e-05	-0.0002623879409	-0.2726440728	9.782906532	-80.74372864	1.0
84	36.00034332	-2.252215199e-05	-0.0002623879409	-0.2880737185	9.817786217	-81.15607452	1.0
85	36.00034332	-2.252215199e-05	-0.0002623879409	-0.303329736	9.851772308	-81.5617218	1.0
[LeftHandPinky3]
82	21.14211655	0.0001953828178	-2.864415183e-05	-1.872727156	4.685477257	-49.92256165	1.0
83	21.14211655	0.0001953828178	-2.864415183e-05	-1.85674727	4.698302269	-50.1240387	1.0
84	21.14211655	0.0001953828178	-2.864415183e-05	-1.84102726	4.7108922	-50.32282257	1.0
85	21.14211655	0.0001953828178	-2.864415183e-05	-1.825587511	4.723276615	-50.51831055	1.0
[LeftHandPinky4]
82	19.7568264	0.0001240565616	-0.0004430140834	0	0	0	1.0
83	19.7568264	0.0001240565616	-0.0004430140834	0	0	0	1.0
84	19.7568264	0.0001240565616	-0.0004430140834	0	0	0	1.0
85	19.7568264	0.0001240565616	-0.0004430140834	0	0	0	1.0
[RightShoulder]
82	-45.69969559	109.4617615	-26.28017426	2.791478395	9.293987274	-6.412438393	1.0
83	-45.69969559	109.4617615	-26.28017426	2.759331226	5.118427753	-0.9731802344	1.0
84	-45.69969559	109.4617615	-26.28017426	3.539947987	3.047256708	2.144767284	1.0
85	-45.69969559	109.4617615	-26.28017426	4.662744522	2.961108685	2.704474211	1.0
[RightArm]
82	-105.9284363	-5.247983932	-22.32098579	-43.33244705	17.05092239	-1.768268943	1.0
83	-105.9284363	-5.247983932	-22.32098579	-32.90075302	11.95992374	1.498037338	1.0
84	-105.9284363	-5.247983932	-22.32098579	-19.43821335	7.77148819	7.220449448	1.0
85	-105.9284363	-5.247983932	-22.32098579	-6.952146053	4.981181622	12.97678757	1.0
[RightForeArm]
82	-278.4151917	-0.0003307921579	0.0001167631053	-341.365448	43.40358734	-348.4304504	1.0
83	-278.4151917	-0.0003307921579	0.0001167631053	-340.8479309	54.33457947	-344.2443848	1.0
84	-278.4151917	-0.0003307921579	0.0001167631053	-342.9795532	68.66459656	-347.015686	1.0
85	-278.4151917	-0.0003307921579	0.0001167631053	-370.9163208	82.80025482	-377.8800964	1.0
[RightHand]
82	-283.2883911	-1.581417109e-06	0.000558160129	-11.74645615	-1.168832779	-7.807759762	1.0
83	-283.2883911	-1.581417109e-06	0.000558160129	-10.43268108	-4.370669365	-6.490857601	1.0
84	-283.2883911	-1.581417109e-06	0.000558160129	-11.92239189	-6.746420383	-4.294427395	1.0
85	-283.2883911	-1.581417109e-06	0.000558160129	-15.45264149	-7.967568874	-2.742419243	1.0
[RightHandPinky1]
82	-80.76674652	-4.88459301	-38.06010437	-20.93572998	-5.101958752	96.1434021	1.0
83	-80.76674652	-4.88459301	-38.06010437	-20.98237991	-4.885534763	96.67388153	1.0
84	-80.76674652	-4.88459301	-38.06010437	-21.02709007	-4.679427147	97.17989349	1.0
85	-80.76674652	-4.88459301	-38.06010437	-21.06977844	-4.4830513	97.66261292	1.0
[RightHandPinky2]
82	-36.00034332	0.0003967665543	0.0005081442068	0.6770755053	-8.869647026	84.1700058	1.0
83	-36.00034332	0.0003967665543	0.0005081442068	0.6680466533	-8.910017967	84.70679474	1.0
84	-36.00034332	0.0003967665543	0.0005081442068	0.659401238	-8.948094368	85.21889496	1.0
85	-36.00034332	0.0003967665543	0.0005081442068	0.6510893703	-8.984028816	85.70748901	1.0
[RightHandPinky3]
82	-21.14211655	0.0001513792522	0.0001479376951	-1.271377206	-3.860278606	51.78354263	1.0
83	-21.14211655	0.0001513792522	0.0001479376951	-1.247785807	-3.872354031	52.04615021	1.0
84	-21.14211655	0.0001513792522	0.0001479376951	-1.225459814	-3.883789301	52.29704285	1.0
85	-21.14211655	0.0001513792522	0.0001479376951	-1.204323173	-3.894623041	52.5367012	1.0
[RightHandPinky4]
82	-19.7568264	-0.000185219571	-9.839841368e-06	0	0	0	1.0
83	-19.7568264	-0.000185219571	-9.839841368e-06	0	0	0	1.0
84	-19.7568264	-0.000185219571	-9.839841368e-06	0	0	0	1.0
85	-19.7568264	-0.000185219571	-9.839841368e-06	0	0	0	1.0
[RightHandRing1]
82	-91.03588104	-0.4391434789	-18.65072441	-14.6444664	-6.909352779	89.17269135	1.0
83	-91.03588104	-0.4391434789	-18.65072441	-14.72591686	-6.81932354	89.83054352	1.0
84	-91.03588104	-0.4391434789	-18.65072441	-14.8034935	-6.733156681	90.45774841	1.0
85	-91.03588104	-0.4391434789	-18.65072441	-14.87726307	-6.650598049	91.05591583	1.0
[RightHandRing2]
82	-31.54026794	0.0002399729856	0.0004885121016	-1.988346815	-6.617411613	96.64274597	1.0
83	-31.54026794	0.0002399729856	0.0004885121016	-1.975242019	-6.634085178	97.22192383	1.0
84	-31.54026794	0.0002399729856	0.0004885121016	-1.962783694	-6.649384022	97.77457428	1.0
85	-31.54026794	0.0002399729856	0.0004885121016	-1.950888515	-6.663518906	98.3019104	1.0
[RightHandRing3]
82	-29.37672424	-0.0004160065437	-0.0003966063377	1.661323071	-4.668894291	47.97218704	1.0
83	-29.37672424	-0.0004160065437	-0.0003966063377	1.690611362	-4.694218636	48.23728561	1.0
84	-29.37672424	-0.0004160065437	-0.0003966063377	1.718382239	-4.71830368	48.49064636	1.0
85	-29.37672424	-0.0004160065437	-0.0003966063377	1.744709134	-4.741173744	48.73265076	1.0
[RightHandRing4]
82	-26.47452545	0.0002460821415	-2.294923434e-05	0	0	0	1.0
83	-26.47452545	0.0002460821415	-2.294923434e-05	0	0	0	1.0
84	-26.47452545	0.0002460821415	-2.294923434e-05	0	0	0	1.0
85	-26.47452545	0.0002460821415	-2.294923434e-05	0	0	0	1.0
[RightHandMiddle1]
82	-95.32502747	-0.0001631230261	0.0001679184206	-9.576826096	-7.096998215	81.81157684	1.0
83	-95.32502747	-0.0001631230261	0.0001679184206	-9.649335861	-7.093921661	82.51904297	1.0
84	-95.32502747	-0.0001631230261	0.0001679184206	-9.718260765	-7.090303898	83.19338989	1.0
85	-95.32502747	-0.0001631230261	0.0001679184206	-9.78385067	-7.08617115	83.83644867	1.0
[RightHandMiddle2]
82	-36.98236847	0.000150669599	-0.0002254552383	-2.871230841	-5.601666927	85.18675995	1.0
83	-36.98236847	0.000150669599	-0.0002254552383	-2.898929596	-5.612512112	85.75880432	1.0
84	-36.98236847	0.000150669599	-0.0002254552383	-2.925410509	-5.622352123	86.30435181	1.0
85	-36.98236847	0.000150669599	-0.0002254552383	-2.950719357	-5.631381989	86.82460022	1.0
[RightHandMiddle3]
82	-29.50921631	-3.113244929e-06	-3.03402544e-06	-1.908668518	-3.699737787	53.98215866	1.0
83	-29.50921631	-3.113244929e-06	-3.03402544e-06	-1.93103683	-3.714252949	54.30487442	1.0
84	-29.50921631	-3.113244929e-06	-3.03402544e-06	-1.95250237	-3.728002548	54.61305618	1.0
85	-29.50921631	-3.113244929e-06	-3.03402544e-06	-1.973042011	-3.741042614	54.90736771	1.0
[RightHandMiddle4]
82	-28.3390255	8.05324089e-05	0.0005378770875	0	0	0	1.0
83	-28.3390255	8.05324089e-05	0.0005378770875	0	0	0	1.0
84	-28.3390255	8.05324089e-05	0.0005378770875	0	0	0	1.0
85	-28.3390255	8.05324089e-05	0.0005378770875	0	0	0	1.0
[RightHandIndex1]
82	-91.08280945	-5.167889595	22.60116386	-5.830522537	-6.443668365	83.8957901	1.0
83	-91.08280945	-5.167889595	22.60116386	-5.857403278	-6.526836872	84.68531799	1.0
84	-91.08280945	-5.167889595	22.60116386	-5.88267231	-6.604959488	85.43806458	1.0
85	-91.08280945	-5.167889595	22.60116386	-5.906439781	-6.678522587	86.15599823	1.0
[RightHandIndex2]
82	-36.76409531	0.0001922715601	0.0003235567128	-2.518741131	-3.74796176	56.5883522	1.0
83	-36.76409531	0.0001922715601	0.0003235567128	-2.558272362	-3.760248423	56.92034531	1.0
84	-36.76409531	0.0001922715601	0.0003235567128	-2.596037626	-3.771894455	57.23715973	1.0
85	-36.76409531	0.0001922715601	0.0003235567128	-2.632129669	-3.782886267	57.53945541	1.0
[RightHandIndex3]
82	-28.83062553	-0.0004960121587	0.0004044897505	-0.6061591506	-3.99899745	48.10355377	1.0
83	-28.83062553	-0.0004960121587	0.0004044897505	-0.6221910119	-4.017418861	48.38114929	1.0
84	-28.83062553	-0.0004960121587	0.0004044897505	-0.6375706196	-4.034983158	48.64633942	1.0
85	-28.83062553	-0.0004960121587	0.0004044897505	-0.6523219943	-4.051670551	48.89958954	1.0
[RightHandIndex4]
82	-23.92720032	0.0002681470069	0.0002802013478	0	0	0	1.0
83	-23.92720032	0.0002681470069	0.0002802013478	0	0	0	1.0
84	-23.92720032	0.0002681470069	0.0002802013478	0	0	0	1.0
85	-23.92720032	0.0002681470069	0.0002802013478	0	0	0	1.0
[RightHandThumb1]
82	-24.64805984	-15.72714233	26.82626534	-20.26020241	3.245818853	11.23821354	1.0
83	-24.64805984	-15.72714233	26.82626534	-20.45059776	3.167369843	11.41148376	1.0
84	-24.64805984	-15.72714233	26.82626534	-20.63203239	3.093320131	11.57685566	1.0
85	-24.64805984	-15.72714233	26.82626534	-20.80500221	3.023393154	11.73475552	1.0
[RightHandThumb2]
82	-32.29771805	-18.6470871	18.64718437	32.77832031	-32.97833252	-32.94053268	1.0
83	-32.29771805	-18.6470871	18.64718437	33.07781219	-33.00500107	-33.17811203	1.0
84	-32.29771805	-18.6470871	18.64718437	33.362957	-33.02997971	-33.40375137	1.0
85	-32.29771805	-18.6470871	18.64718437	33.6345253	-33.05331039	-33.61824417	1.0
[RightHandThumb3]
82	-26.52605057	-15.31449318	15.31445599	-5.901014805	-30.4589386	-6.110394478	1.0
83	-26.52605057	-15.31449318	15.31445599	-5.882407665	-30.75799942	-6.14825058	1.0
84	-26.52605057	-15.31449318	15.31445599	-5.864919662	-31.04227829	-6.184365749	1.0
85	-26.52605057	-15.31449318	15.31445599	-5.848375797	-31.31265259	-6.218829632	1.0
[RightHandThumb4]
82	-19.54580498	-11.28461742	11.28507042	0	0	0	1.0
83	-19.54580498	-11.28461742	11.28507042	0	0	0	1.0
84	-19.54580498	-11.28461742	11.28507042	0	0	0	1.0
85	-19.54580498	-11.28461742	11.28507042	0	0	0	1.0
[LeftUpLeg]
82	82.07781982	-67.51714325	-15.99555588	-21.16089249	46.49725723	-0.5006528497	1.0
83	82.07781982	-67.51714325	-15.99555588	-20.66580772	46.35560226	3.372699499	1.0
84	82.07781982	-67.51714325	-15.99555588	-20.23741531	46.55271149	5.95067358	1.0
85	82.07781982	-67.51714325	-15.99555588	-20.51542473	47.27614975	6.394730568	1.0
[LeftLeg]
82	-4.110157988e-06	-443.7047119	2.846426487	62.99610519	-13.23922443	-4.198753357	1.0
83	-4.110157988e-06	-443.7047119	2.846426487	67.46524048	-12.96290779	-5.146233082	1.0
84	-4.110157988e-06	-443.7047119	2.846426487	69.31783295	-12.78122139	-5.54815197	1.0
85	-4.110157988e-06	-443.7047119	2.846426487	68.89653778	-12.82099724	-5.454661846	1.0
[LeftFoot]
82	4.716393505e-06	-444.278717	-29.82190704	-25.1084671	-9.201464653	-5.064975262	1.0
83	4.716393505e-06	-444.278717	-29.82190704	-26.00277328	-12.15208244	-3.236343861	1.0
84	4.716393505e-06	-444.278717	-29.82190704	-25.59254646	-15.3105526	-2.018931866	1.0
85	4.716393505e-06	-444.278717	-29.82190704	-24.24542427	-17.71956635	-1.641716361	1.0
[LeftToeBase]
82	-2.960988058e-05	-87.28669739	107.1055984	-3.645035982	2.835253099e-06	-4.907515631e-06	1.0
83	-2.960988058e-05	-87.28669739	107.1055984	-4.657996655	1.258491579e-06	2.743673804e-06	1.0
84	-2.960988058e-05	-87.28669739	107.1055984	-6.156703472	3.292343081e-06	5.999474524e-06	1.0
85	-2.960988058e-05	-87.28669739	107.1055984	-7.632996559	-3.450299175e-07	-3.236187467e-06	1.0
[RightUpLeg]
82	-82.07795715	-67.51662445	-15.99559402	-39.84933853	-15.98577213	-8.735302925	1.0
83	-82.07795715	-67.51662445	-15.99559402	-38.20018005	-16.58908844	-8.815258026	1.0
84	-82.07795715	-67.51662445	-15.99559402	-37.11752319	-16.94521713	-8.53019619	1.0
85	-82.07795715	-67.51662445	-15.99559402	-37.01293564	-16.81934738	-8.118271828	1.0
[RightLeg]
82	8.435572454e-07	-443.7053833	2.861563921	65.95479584	6.714651585	-8.788096428	1.0
83	8.435572454e-07	-443.7053833	2.861563921	69.27071381	6.735522747	-9.106969833	1.0
84	8.435572454e-07	-443.7053833	2.861563921	70.57191467	6.76839304	-9.163560867	1.0
85	8.435572454e-07	-443.7053833	2.861563921	69.87445831	6.514163017	-9.391639709	1.0
[RightFoot]
82	9.644581951e-06	-444.2773132	-29.83789063	-24.86088943	6.15535593	4.355128288	1.0
83	9.644581951e-06	-444.2773132	-29.83789063	-27.3589077	4.824088573	5.551905632	1.0
84	9.644581951e-06	-444.2773132	-29.83789063	-28.64437866	3.223885059	6.426456451	1.0
85	9.644581951e-06	-444.2773132	-29.83789063	-28.65268326	2.632090092	6.64905262	1.0
[RightToeBase]
82	-2.360438157e-05	-87.28668976	107.1056061	-4.719520439e-05	3.746677612e-05	-9.117501031e-05	1.0
83	-2.360438157e-05	-87.28668976	107.1056061	0.01896592043	-1.881360367e-05	-6.388787006e-05	1.0
84	-2.360438157e-05	-87.28668976	107.1056061	-7.15529095e-05	1.884170706e-05	-0.0001138963344	1.0
85	-2.360438157e-05	-87.28668976	107.1056061	0.1280641258	-3.217036465e-06	3.187475522e-05	1.0
[EndOfFile]
